<?xml version="1.0" encoding="UTF-8" standalone="no"?>
<svg
   xmlns:dc="http://purl.org/dc/elements/1.1/"
   xmlns:cc="http://creativecommons.org/ns#"
   xmlns:rdf="http://www.w3.org/1999/02/22-rdf-syntax-ns#"
   xmlns:svg="http://www.w3.org/2000/svg"
   xmlns="http://www.w3.org/2000/svg"
   xmlns:sodipodi="http://sodipodi.sourceforge.net/DTD/sodipodi-0.dtd"
   xmlns:inkscape="http://www.inkscape.org/namespaces/inkscape"
   height="407.60001"
   width="491.51999"
   inkscape:version="1.0 (4035a4f, 2020-05-01)"
   sodipodi:docname="computer.svg"
   xml:space="preserve"
   viewBox="0 0 491.52 407.59999"
   y="0px"
   x="0px"
   id="Layer_1"
   version="1.1"><metadata
     id="metadata844"><rdf:RDF><cc:Work
         rdf:about=""><dc:format>image/svg+xml</dc:format><dc:type
           rdf:resource="http://purl.org/dc/dcmitype/StillImage" /><dc:title></dc:title></cc:Work></rdf:RDF></metadata><defs
     id="defs842" /><sodipodi:namedview
     fit-margin-bottom="0"
     fit-margin-right="0"
     fit-margin-left="0"
     fit-margin-top="0"
     inkscape:current-layer="Layer_1"
     inkscape:window-maximized="0"
     inkscape:window-y="23"
     inkscape:window-x="2168"
     inkscape:cy="185.58262"
     inkscape:cx="230.87827"
     inkscape:zoom="4.671224"
     showgrid="false"
     id="namedview840"
     inkscape:window-height="915"
     inkscape:window-width="1624"
     inkscape:pageshadow="2"
     inkscape:pageopacity="0"
     guidetolerance="10"
     gridtolerance="10"
     objecttolerance="10"
     borderopacity="1"
     bordercolor="#666666"
     pagecolor="#ffffff" /><style
     id="style833"
     type="text/css">.st0{fill-rule:evenodd;clip-rule:evenodd;}</style><g
     transform="scale(4)"
     id="g837"><path
       id="path835"
       d="m 3.34,0 h 116.2 c 1.84,0 3.34,1.5 3.34,3.34 v 76.98 c 0,1.84 -1.5,3.34 -3.34,3.34 H 3.34 C 1.5,83.66 0,82.16 0,80.32 V 3.34 C 0,1.5 1.5,0 3.34,0 Z m 88.24,27.97 10.5,0.03 c -0.01,2.8 -1.14,5.48 -3.13,7.45 -0.47,0.46 -0.99,0.88 -1.54,1.25 z M 31.13,19.72 h 3.2 c 0.17,0 0.31,0.14 0.31,0.31 v 11.4 c 0,0.17 -0.14,0.31 -0.31,0.31 h -3.2 c -0.17,0 -0.31,-0.14 -0.31,-0.31 v -11.4 c 0,-0.17 0.14,-0.31 0.31,-0.31 z M 16.65,15.87 h 3.2 c 0.17,0 0.31,0.14 0.31,0.31 v 15.26 c 0,0.17 -0.14,0.31 -0.31,0.31 h -3.2 c -0.17,0 -0.31,-0.14 -0.31,-0.31 V 16.18 c 0,-0.17 0.14,-0.31 0.31,-0.31 z m 7.24,-2.17 h 3.2 c 0.17,0 0.31,0.14 0.31,0.31 v 17.43 c 0,0.17 -0.14,0.31 -0.31,0.31 h -3.2 c -0.17,0 -0.31,-0.14 -0.31,-0.31 V 14.01 c 0,-0.17 0.14,-0.31 0.31,-0.31 z m -7.05,47.67 c -0.7,0 -1.26,-0.57 -1.26,-1.28 0,-0.7 0.57,-1.28 1.26,-1.28 h 89.41 c 0.7,0 1.26,0.57 1.26,1.28 0,0.7 -0.57,1.28 -1.26,1.28 z m -0.21,-9.3 c -0.7,0 -1.26,-0.57 -1.26,-1.28 0,-0.7 0.57,-1.28 1.26,-1.28 h 35.85 c 0.7,0 1.26,0.57 1.26,1.28 0,0.7 -0.57,1.28 -1.26,1.28 z m 40.77,0 c -0.7,0 -1.26,-0.57 -1.26,-1.28 0,-0.7 0.57,-1.28 1.26,-1.28 h 48.85 c 0.7,0 1.26,0.57 1.26,1.28 0,0.7 -0.57,1.28 -1.26,1.28 z M 16.63,43.76 c -0.7,0 -1.26,-0.57 -1.26,-1.28 0,-0.7 0.57,-1.28 1.26,-1.28 h 54.16 c 0.7,0 1.26,0.57 1.26,1.28 0,0.7 -0.57,1.28 -1.26,1.28 z M 90.5,25.88 89.94,14.65 c -0.01,-0.22 0.16,-0.41 0.38,-0.42 0.06,0 0.14,-0.01 0.23,-0.01 0.07,0 0.15,0 0.23,0 3.08,-0.03 5.92,1.13 8.03,3.08 2.12,1.95 3.51,4.67 3.73,7.75 0.02,0.22 -0.15,0.41 -0.37,0.43 l -11.23,0.8 C 90.72,26.3 90.53,26.13 90.51,25.91 90.5,25.9 90.5,25.89 90.5,25.88 Z m 0.26,-10.86 0.52,10.43 10.42,-0.74 c -0.29,-2.7 -1.56,-5.09 -3.44,-6.81 -1.97,-1.81 -4.61,-2.9 -7.48,-2.87 z m -1.52,12.46 5.63,9.75 c -1.71,0.99 -3.65,1.51 -5.63,1.51 -6.22,0 -11.26,-5.04 -11.26,-11.26 0,-5.59 4.1,-10.33 9.63,-11.14 z M 46.29,88.27 h 30.3 c 0.08,5.24 2.24,9.94 8.09,13.63 H 38.2 c 4.68,-3.39 8.11,-7.51 8.09,-13.63 z M 61.44,72.41 c 2.37,0 4.29,1.92 4.29,4.29 0,2.37 -1.92,4.29 -4.29,4.29 -2.37,0 -4.29,-1.92 -4.29,-4.29 0,-2.37 1.92,-4.29 4.29,-4.29 z M 10.05,6.29 h 102.79 c 1.63,0 2.95,1.33 2.95,2.95 v 57.52 c 0,1.62 -1.33,2.95 -2.95,2.95 H 10.05 C 8.43,69.71 7.1,68.38 7.1,66.76 V 9.24 C 7.09,7.62 8.42,6.29 10.05,6.29 Z"
       class="st0" /></g></svg>
