<?xml version="1.0" encoding="utf-8"?>
<svg width="110.4211" height="109.8461" id="svg2169" version="1.0" xmlns="http://www.w3.org/2000/svg" xmlns:xlink="http://www.w3.org/1999/xlink">
  <defs id="defs2171">
    <linearGradient id="linearGradient9515-1" gradientUnits="userSpaceOnUse" x1="514.303" y1="251.725" x2="514.303" y2="333.791" xlink:href="#linearGradient9515"/>
  </defs>
  <g id="layer1" transform="translate(-473.36088,-251.72485)">
    <path style="opacity: 1; color: rgb(0, 0, 0); fill-opacity: 1; fill-rule: nonzero; stroke-width: 1; stroke-linecap: butt; stroke-linejoin: miter; marker: none; stroke-miterlimit: 4; stroke-dasharray: none; stroke-dashoffset: 0; stroke-opacity: 1; visibility: visible; display: inline; overflow: visible; stroke: url(#linearGradient9515-1); paint-order: stroke; fill: rgb(0, 162, 255);" d="M 528.173 251.725 C 500.142 251.725 501.892 263.881 501.892 263.881 L 501.923 276.475 L 528.673 276.475 L 528.673 280.256 L 491.298 280.256 C 491.298 280.256 473.361 278.222 473.361 306.506 C 473.361 334.79 489.017 333.787 489.017 333.787 L 498.361 333.787 L 498.361 320.662 C 498.361 320.662 497.857 305.006 513.767 305.006 C 529.677 305.006 540.298 305.006 540.298 305.006 C 540.298 305.006 555.205 305.247 555.205 290.6 C 555.205 275.953 555.205 266.381 555.205 266.381 C 555.205 266.381 557.468 251.725 528.173 251.725 Z M 513.423 260.194 C 516.085 260.194 518.236 262.345 518.236 265.006 C 518.236 267.668 516.085 269.819 513.423 269.819 C 510.762 269.819 508.611 267.668 508.611 265.006 C 508.611 262.345 510.762 260.194 513.423 260.194 Z" id="path8615"/>
    <path id="path8620" d="M 528.97 361.571 C 557.001 361.571 555.251 349.415 555.251 349.415 L 555.22 336.821 L 528.47 336.821 L 528.47 333.04 L 565.845 333.04 C 565.845 333.04 583.782 335.074 583.782 306.79 C 583.782 278.505 568.126 279.508 568.126 279.508 L 558.782 279.508 L 558.782 292.633 C 558.782 292.633 559.286 308.29 543.376 308.29 C 527.466 308.29 516.844 308.29 516.844 308.29 C 516.844 308.29 501.938 308.049 501.938 322.696 C 501.938 337.343 501.938 346.915 501.938 346.915 C 501.938 346.915 499.675 361.571 528.97 361.571 Z M 543.72 353.102 C 541.058 353.102 538.907 350.951 538.907 348.29 C 538.907 345.628 541.058 343.477 543.72 343.477 C 546.381 343.477 548.532 345.628 548.532 348.29 C 548.532 350.951 546.381 353.102 543.72 353.102 Z" style="opacity: 1; color: rgb(0, 0, 0); fill-opacity: 1; fill-rule: nonzero; stroke: none; stroke-width: 1; stroke-linecap: butt; stroke-linejoin: miter; marker: none; stroke-miterlimit: 4; stroke-dasharray: none; stroke-dashoffset: 0; stroke-opacity: 1; visibility: visible; display: inline; overflow: visible; paint-order: stroke; fill: rgb(0, 162, 255);"/>
  </g>
</svg>
