<?xml version="1.0" encoding="UTF-8"?>
<!DOCTYPE svg PUBLIC "-//W3C//DTD SVG 1.1//EN" "http://www.w3.org/Graphics/SVG/1.1/DTD/svg11.dtd">
<svg version="1.1" xmlns="http://www.w3.org/2000/svg" xmlns:xlink="http://www.w3.org/1999/xlink" x="0" y="0" width="441.5" height="562" viewBox="0, 0, 441.5, 562">
  <g id="Layer_1">
    <g>
      <g>
        <path d="M20.5,1 L442,1 L442,540 L20.5,540 z" fill="#FFFFFF"/>
        <path d="M20.5,1 L442,1 L442,540 L20.5,540 z" fill-opacity="0" stroke="#000000" stroke-width="5" stroke-linecap="round" stroke-linejoin="round"/>
      </g>
      <g>
        <path d="M10.5,11 L432,11 L432,550 L10.5,550 z" fill="#FFFFFF"/>
        <path d="M10.5,11 L432,11 L432,550 L10.5,550 z" fill-opacity="0" stroke="#000000" stroke-width="5" stroke-linecap="round" stroke-linejoin="round"/>
      </g>
      <g>
        <path d="M313.633,21 L422,129.367 L422,560 L0.5,560 L0.5,21 L313.633,21 z" fill="#FFFFFF"/>
        <path d="M313.633,21 L422,129.367 L422,560 L0.5,560 L0.5,21 L313.633,21 z" fill-opacity="0" stroke="#000000" stroke-width="5" stroke-linecap="round" stroke-linejoin="round"/>
      </g>
      <g>
        <path d="M312.883,128.784 L421.25,128.784 L312.883,20.418 L312.883,128.784 z" fill="#FFFFFF"/>
        <path d="M312.883,128.784 L421.25,128.784 L312.883,20.418 L312.883,128.784 z" fill-opacity="0" stroke="#000000" stroke-width="5" stroke-linecap="round" stroke-linejoin="round"/>
      </g>
      <path d="M44.25,275.5 L376.75,274" fill-opacity="0" stroke="#000000" stroke-width="5" stroke-linecap="round" stroke-linejoin="round"/>
      <path d="M125,70 L125,200" fill-opacity="0" stroke="#000000" stroke-width="5" stroke-linecap="round" stroke-linejoin="round"/>
      <path d="M125,200 L284.5,200" fill-opacity="0" stroke="#000000" stroke-width="5" stroke-linecap="round" stroke-linejoin="round"/>
      <path d="M143,186 C143,149.825 193.592,120.5 256,120.5" fill-opacity="0" stroke="#000000" stroke-width="5" stroke-linecap="round" stroke-linejoin="round"/>
      <path d="M44.25,315.7 L376.75,314.2" fill-opacity="0" stroke="#000000" stroke-width="5" stroke-linecap="round" stroke-linejoin="round"/>
      <path d="M44.25,355.9 L376.75,354.4" fill-opacity="0" stroke="#000000" stroke-width="5" stroke-linecap="round" stroke-linejoin="round"/>
      <path d="M44.25,396.1 L376.75,394.6" fill-opacity="0" stroke="#000000" stroke-width="5" stroke-linecap="round" stroke-linejoin="round"/>
      <path d="M44.25,436.3 L376.75,434.8" fill-opacity="0" stroke="#000000" stroke-width="5" stroke-linecap="round" stroke-linejoin="round"/>
      <path d="M44.25,476.5 L376.75,475" fill-opacity="0" stroke="#000000" stroke-width="5" stroke-linecap="round" stroke-linejoin="round"/>
      <path d="M309.5,511.5 L376.75,510.5" fill-opacity="0" stroke="#000000" stroke-width="5" stroke-linecap="round" stroke-linejoin="round"/>
    </g>
  </g>
</svg>
